<?xml version="1.0" encoding="UTF-8"?>
<svg width="48px" height="48px" viewBox="0 0 48 48" version="1.1" xmlns="http://www.w3.org/2000/svg" xmlns:xlink="http://www.w3.org/1999/xlink">
    <title>iconografia/marca/Tareas monetarias/Clave dinámica/on</title>
    <g id="iconografia/marca/Tareas-monetarias/Clave-dinámica/on" stroke="none" stroke-width="1" fill="none" fill-rule="evenodd">
        <g id="Group-13" transform="translate(8.000000, 3.000000)">
            <path d="M23.4238,3.8364 L23.4248,3.8354 C23.4208,3.8304 23.4168,3.8264 23.4128,3.8224 C22.4948,2.6654 21.3148,1.7144 19.9518,1.0504 C19.9498,1.0484 19.9468,1.0474 19.9448,1.0464 C19.6188,0.8884 19.2838,0.7484 18.9388,0.6244 C18.9058,0.6124 18.8718,0.6004 18.8388,0.5884 C18.5138,0.4754 18.1818,0.3784 17.8428,0.2964 C17.8068,0.2884 17.7718,0.2784 17.7358,0.2704 C16.9878,0.0994 16.2118,0.0004 15.4098,0.0004 C15.1848,0.0004 14.9658,0.0234 14.7448,0.0384 C14.6098,0.0464 14.4718,0.0474 14.3378,0.0614 C14.1358,0.0824 13.9398,0.1164 13.7418,0.1484 C13.5748,0.1754 13.4078,0.2004 13.2438,0.2354 C13.0598,0.2734 12.8808,0.3204 12.7008,0.3694 C12.5268,0.4164 12.3538,0.4654 12.1838,0.5214 C12.0178,0.5754 11.8548,0.6314 11.6928,0.6934 C11.5108,0.7634 11.3338,0.8394 11.1568,0.9194 C11.0138,0.9824 10.8698,1.0444 10.7308,1.1154 C10.5238,1.2204 10.3238,1.3364 10.1258,1.4534 C10.0258,1.5134 9.9218,1.5664 9.8238,1.6294 C9.5298,1.8174 9.2468,2.0204 8.9758,2.2364 C8.9318,2.2724 8.8918,2.3114 8.8478,2.3474 C8.6198,2.5364 8.3998,2.7324 8.1898,2.9404 C8.1198,3.0084 8.0548,3.0824 7.9878,3.1524 C7.8098,3.3384 7.6388,3.5284 7.4778,3.7274 C7.4488,3.7624 7.4148,3.7934 7.3868,3.8294 L7.3908,3.8374 C6.1088,5.4574 5.3378,7.4694 5.3378,9.6554 L5.3378,15.3584 C5.3378,15.8074 5.7018,16.1704 6.1508,16.1704 C6.5998,16.1704 6.9638,15.8074 6.9638,15.3584 L6.9638,9.6554 C6.9638,8.0984 7.4408,6.6484 8.2518,5.4164 C8.4068,5.1794 8.5748,4.9514 8.7548,4.7324 C8.7798,4.7004 8.8028,4.6674 8.8288,4.6364 C9.0368,4.3904 9.2598,4.1564 9.4958,3.9354 C9.5358,3.8984 9.5778,3.8654 9.6178,3.8294 C9.8098,3.6574 10.0088,3.4944 10.2168,3.3394 C10.2998,3.2784 10.3838,3.2194 10.4688,3.1604 C10.6508,3.0354 10.8388,2.9184 11.0298,2.8074 C11.1208,2.7544 11.2098,2.6984 11.3018,2.6494 C11.5698,2.5064 11.8448,2.3764 12.1298,2.2614 C12.2248,2.2234 12.3258,2.1944 12.4238,2.1584 C12.6238,2.0864 12.8258,2.0184 13.0328,1.9614 C13.1738,1.9214 13.3168,1.8884 13.4608,1.8564 C13.6328,1.8164 13.8088,1.7844 13.9858,1.7554 C14.1398,1.7304 14.2948,1.7044 14.4518,1.6874 C14.6408,1.6674 14.8328,1.6594 15.0258,1.6514 C15.1508,1.6464 15.2748,1.6334 15.4018,1.6334 C15.7768,1.6334 16.1468,1.6574 16.5088,1.7034 C16.5258,1.7054 16.5428,1.7084 16.5588,1.7104 C16.9068,1.7554 17.2488,1.8214 17.5818,1.9064 C17.5958,1.9104 17.6108,1.9134 17.6248,1.9174 C19.7278,2.4634 21.5068,3.7654 22.6148,5.4964 L22.6148,5.4954 C23.3918,6.7094 23.8478,8.1274 23.8478,9.6484 L23.8478,15.3524 C23.8478,15.8004 24.2128,16.1654 24.6608,16.1654 C25.1108,16.1654 25.4738,15.8004 25.4738,15.3524 L25.4738,9.6484 C25.4738,7.4654 24.7048,5.4554 23.4238,3.8364" id="Fill-1" fill="#5C5C60"></path>
            <path d="M2.8369,34.3823 L2.8369,21.4293 C2.8369,20.9913 3.1909,20.6373 3.6289,20.6373 L31.1189,20.6373 C31.5579,20.6373 31.9119,20.9913 31.9119,21.4293 L31.9119,40.9573 C31.9119,41.3953 31.5579,41.7503 31.1189,41.7503 L3.6289,41.7503 C3.1909,41.7503 2.8369,41.3953 2.8369,40.9573 L2.8369,39.2413" id="Fill-3" fill="#FCD505"></path>
            <path d="M29.1504,17.8505 L1.6594,17.8505 C0.7734,17.8505 0.0534,18.5705 0.0534,19.4555 L0.0534,32.4095 C0.0534,32.8585 0.4184,33.2225 0.8674,33.2225 C1.3164,33.2225 1.6804,32.8585 1.6804,32.4095 L1.6594,19.4775 L29.1294,19.4555 L29.1504,38.9625 L1.6804,38.9845 L1.6804,37.2675 C1.6804,36.8185 1.3164,36.4545 0.8674,36.4545 C0.4184,36.4545 0.0534,36.8185 0.0534,37.2675 L0.0534,38.9845 C0.0534,39.8695 0.7734,40.5895 1.6594,40.5895 L29.1504,40.5895 C30.0364,40.5895 30.7564,39.8695 30.7564,38.9845 L30.7564,19.4555 C30.7564,18.5705 30.0364,17.8505 29.1504,17.8505" id="Fill-5" fill="#5C5C60"></path>
            <path d="M0.5,35.5771 C0.6,35.6171 0.71,35.6371 0.81,35.6371 C1.029,35.6371 1.239,35.5471 1.39,35.3971 C1.539,35.2471 1.63,35.0371 1.63,34.8271 C1.63,34.6071 1.539,34.3971 1.39,34.2471 C1.159,34.0171 0.8,33.9471 0.5,34.0771 C0.399,34.1171 0.31,34.1771 0.239,34.2471 C0.09,34.3971 0,34.6071 0,34.8271 C0,35.0371 0.09,35.2471 0.239,35.3971 C0.31,35.4771 0.399,35.5371 0.5,35.5771" id="Fill-7" fill="#5C5C60"></path>
            <path d="M21.0684,29.1523 C20.6334,29.1523 20.2794,29.5063 20.2794,29.9413 C20.2794,32.6283 18.0934,34.8153 15.4064,34.8153 C13.9534,34.8153 12.5734,34.1563 11.6514,33.0373 L12.2114,33.2133 C12.4134,33.2773 12.6284,33.2573 12.8134,33.1593 C13.0004,33.0603 13.1384,32.8963 13.1994,32.6953 C13.2634,32.4953 13.2434,32.2823 13.1464,32.0953 C13.0484,31.9093 12.8844,31.7713 12.6834,31.7093 L10.3014,30.9623 C9.9054,30.8403 9.4834,31.0423 9.3324,31.4223 L8.4324,33.6763 C8.3554,33.8723 8.3574,34.0863 8.4404,34.2803 C8.5234,34.4733 8.6744,34.6213 8.8664,34.6973 C8.9604,34.7373 9.0604,34.7573 9.1644,34.7573 C9.4884,34.7573 9.7764,34.5623 9.8974,34.2613 L10.1434,33.6423 C11.3554,35.3683 13.3074,36.3913 15.4054,36.3913 C18.9624,36.3913 21.8564,33.4983 21.8564,29.9413 C21.8564,29.5063 21.5024,29.1523 21.0684,29.1523" id="Fill-9" fill="#5C5C60"></path>
            <path d="M22.3716,25.6035 C22.2876,25.4105 22.1346,25.2605 21.9416,25.1845 C21.7466,25.1055 21.5346,25.1085 21.3386,25.1885 C21.1446,25.2715 20.9946,25.4245 20.9146,25.6225 L20.6676,26.2415 C19.4546,24.5155 17.5036,23.4925 15.4056,23.4925 C11.8496,23.4925 8.9556,26.3855 8.9556,29.9415 C8.9556,30.3755 9.3096,30.7295 9.7436,30.7295 C9.9546,30.7295 10.1526,30.6475 10.3016,30.4985 C10.4506,30.3495 10.5326,30.1515 10.5316,29.9415 C10.5316,27.2535 12.7176,25.0675 15.4056,25.0675 C16.8576,25.0675 18.2366,25.7265 19.1596,26.8455 L18.6006,26.6705 C18.3996,26.6065 18.1866,26.6255 17.9986,26.7235 C17.8126,26.8215 17.6756,26.9865 17.6126,27.1875 C17.4826,27.6015 17.7146,28.0445 18.1286,28.1745 L20.5166,28.9225 C20.9066,29.0425 21.3306,28.8355 21.4786,28.4615 L22.3796,26.2075 C22.4566,26.0115 22.4546,25.7975 22.3716,25.6035" id="Fill-11" fill="#5C5C60"></path>
        </g>
    </g>
</svg>